<?xml version="1.0" encoding="utf-8"?>
<!-- Generator: Adobe Illustrator 16.0.0, SVG Export Plug-In . SVG Version: 6.00 Build 0)  -->
<!DOCTYPE svg PUBLIC "-//W3C//DTD SVG 1.1//EN" "http://www.w3.org/Graphics/SVG/1.1/DTD/svg11.dtd">
<svg version="1.1" id="Capa_1" xmlns="http://www.w3.org/2000/svg" xmlns:xlink="http://www.w3.org/1999/xlink" x="0px" y="0px"
	 width="612px" height="792px" viewBox="0 0 612 792" enable-background="new 0 0 612 792" xml:space="preserve">
<path fill-rule="evenodd" clip-rule="evenodd" fill="#084C61" d="M543.486,328.653l28.666,63.049h-18.578l-5.23-12.104h-32.646
	l-5.248,12.104h-12.635c11.941-5.346,18.764-23.103,9.038-32.952l13.684-30.097H543.486L543.486,328.653z M542.28,365.558
	l-10.24-23.703l-10.256,23.703H542.28z"/>
<polygon fill-rule="evenodd" clip-rule="evenodd" fill="#084C61" points="226.305,328.685 226.223,376.264 251.768,376.264 
	244.734,391.732 208.904,391.732 208.904,328.685 "/>
<path fill-rule="evenodd" clip-rule="evenodd" fill="#084C61" d="M300.217,328.67l13.188,29.006l0.031,34.043h-3.131l-5.23-12.104
	h-32.647l-5.249,12.104h-18.578l28.665-63.049H300.217L300.217,328.67z M299.01,365.576l-10.23-23.679l-10.267,23.679H299.01z"/>
<path fill-rule="evenodd" clip-rule="evenodd" fill="#084C61" d="M443.064,371.091h17.736c0.28,1.738,1.093,3.252,2.438,4.541
	c1.345,1.287,3.152,2.282,5.422,2.982c2.27,0.701,4.945,1.052,8.027,1.052c4.259,0,7.622-0.546,10.089-1.64
	c2.465-1.093,3.698-2.704,3.698-4.833c0-1.626-0.701-2.886-2.103-3.783c-1.4-0.897-4.09-1.541-8.069-1.933l-11.768-1.093
	c-8.688-0.785-14.992-2.76-18.916-5.927c-3.923-3.167-5.883-7.44-5.883-12.819c0-4.372,1.274-8.07,3.825-11.097
	c2.549-3.027,6.135-5.31,10.76-6.851c4.623-1.541,10.017-2.312,16.182-2.312c6.052,0,11.432,0.854,16.139,2.563
	c4.708,1.708,8.449,4.132,11.224,7.271c2.773,3.138,4.272,6.78,4.497,10.928H488.71c-0.225-1.514-0.938-2.816-2.145-3.908
	c-1.204-1.094-2.843-1.935-4.917-2.523c-2.073-0.587-4.566-0.883-7.481-0.883c-3.923,0-7.032,0.519-9.331,1.556
	c-2.297,1.037-3.446,2.564-3.446,4.581c0,1.458,0.687,2.634,2.06,3.531c1.372,0.897,3.853,1.514,7.439,1.85l12.525,1.261
	c5.996,0.561,10.789,1.527,14.375,2.899c3.586,1.374,6.192,3.265,7.817,5.675c1.626,2.41,2.438,5.407,2.438,8.995
	c0,4.427-1.318,8.279-3.951,11.559c-2.634,3.278-6.334,5.829-11.097,7.649c-4.764,1.821-10.312,2.731-16.644,2.731
	c-6.502,0-12.231-0.91-17.191-2.731c-4.959-1.82-8.841-4.398-11.643-7.734C444.717,379.316,443.231,375.463,443.064,371.091z"/>
<path fill-rule="evenodd" clip-rule="evenodd" fill="#084C61" d="M395.387,379.808h27.9l5.211,12.058h18.577l-28.666-63.047h-22.948
	l-15.748,34.549C386.105,370.095,389.578,373.536,395.387,379.808L395.387,379.808z M396.728,365.673l10.246-23.63l10.208,23.63
	H396.728z"/>
<path fill-rule="evenodd" clip-rule="evenodd" fill="#DB504A" d="M208.914,435.785h3.835v-21.826h-3.835V435.785L208.914,435.785z
	 M225.128,435.785h3.772v-15.527l12.038,15.527h3.21v-21.826h-3.772v15.092l-11.692-15.092h-3.556V435.785L225.128,435.785z
	 M256.311,435.785h3.773v-15.592l6.829,10.229h0.125l6.89-10.291v15.654h3.837v-21.826h-4.086l-6.641,10.32l-6.642-10.32h-4.084
	V435.785L256.311,435.785z M300.339,436.16c6.703,0,11.443-5.146,11.443-11.289v-0.063c0-6.143-4.677-11.225-11.382-11.225
	c-6.704,0-11.443,5.145-11.443,11.287v0.063C288.957,431.076,293.636,436.16,300.339,436.16L300.339,436.16z M300.4,432.635
	c-4.334,0-7.42-3.521-7.42-7.764v-0.063c0-4.24,3.024-7.701,7.359-7.701s7.421,3.523,7.421,7.764v0.063
	C307.76,429.174,304.734,432.635,300.4,432.635L300.4,432.635z M322.977,435.785h10.103c4.865,0,8.077-2.09,8.077-5.988v-0.061
	c0-2.963-1.779-4.428-4.335-5.303c1.621-0.842,3.118-2.244,3.118-4.863v-0.063c0-1.465-0.499-2.65-1.465-3.617
	c-1.248-1.246-3.212-1.932-5.707-1.932h-9.791V435.785L322.977,435.785z M326.75,423.156v-5.799h5.52
	c2.463,0,3.835,1.061,3.835,2.773v0.063c0,1.996-1.653,2.963-4.116,2.963H326.75L326.75,423.156z M326.75,432.387V426.4h6.08
	c3.023,0,4.49,1.09,4.49,2.93v0.063c0,1.965-1.59,2.994-4.209,2.994H326.75L326.75,432.387z M352.256,435.785h3.836v-21.826h-3.836
	V435.785L352.256,435.785z M368.471,435.785h15.311v-3.492h-11.476v-18.334h-3.835V435.785L368.471,435.785z M394.538,435.785h3.835
	v-21.826h-3.835V435.785L394.538,435.785z M408.882,435.785h3.929l2.246-5.27h10.319l2.215,5.27h4.054l-9.604-21.982h-3.557
	L408.882,435.785L408.882,435.785z M416.459,427.117l3.742-8.73l3.772,8.73H416.459L416.459,427.117z M441.934,435.785h3.837v-7.609
	h4.801l5.363,7.609h4.521l-5.894-8.262c3.056-0.875,5.207-3.025,5.207-6.611v-0.063c0-1.902-0.653-3.523-1.808-4.709
	c-1.403-1.373-3.556-2.182-6.3-2.182h-9.729V435.785L441.934,435.785z M445.771,424.777v-7.328h5.58
	c2.838,0,4.521,1.279,4.521,3.617v0.063c0,2.215-1.745,3.648-4.489,3.648H445.771L445.771,424.777z M471.245,435.785h3.835v-21.826
	h-3.835V435.785L471.245,435.785z M485.589,435.785h3.928l2.246-5.27h10.32l2.214,5.27h4.055l-9.604-21.982h-3.556L485.589,435.785
	L485.589,435.785z M493.166,427.117l3.742-8.73l3.772,8.73H493.166z"/>
<path fill-rule="evenodd" clip-rule="evenodd" fill="#084C61" d="M333.984,328.934c-0.004,11.106-0.012,19.274-0.022,25.845
	c8.97-7.613,19.602-16.647,30.449-25.845h26.356l-26.93,22.833l37.933,39.802h-23.533c-11.024-11.582-20.882-21.948-27.407-28.772
	l-16.916,14.342c-0.008,4.261-0.012,8.777-0.012,14.528h-17.027v-62.732H333.984z"/>
<circle fill-rule="evenodd" clip-rule="evenodd" fill="#E3B505" cx="108.789" cy="381.331" r="78.891"/>
<polygon fill-rule="evenodd" clip-rule="evenodd" fill="#084C61" points="91.507,347.59 66.457,360.362 66.457,433.918 
	91.507,433.918 91.507,407.623 97.537,407.623 124.799,433.762 150.427,433.963 112.445,396.977 145.013,372.16 123.185,372.192 
	97.375,391.844 91.507,391.844 "/>
<polygon fill-rule="evenodd" clip-rule="evenodd" fill="#084C61" points="155.318,391.844 167.233,391.844 146.899,374.088 
	140.481,378.896 "/>
<rect x="129.545" y="391.844" fill-rule="evenodd" clip-rule="evenodd" fill="#084C61" width="5.258" height="5.259"/>
<polygon fill-rule="evenodd" clip-rule="evenodd" fill="#084C61" points="103.249,316.883 75.287,333.016 75.287,351.914 
	95.231,341.239 95.136,388.591 97.022,388.591 103.249,383.926 "/>
<polygon fill-rule="evenodd" clip-rule="evenodd" fill="#084C61" points="108.507,318.689 113.767,322.29 113.767,376.045 
	108.507,379.986 "/>
<polygon fill-rule="evenodd" clip-rule="evenodd" fill="#084C61" points="119.026,324.924 124.286,328.735 124.286,368.166 
	119.026,372.104 "/>
<rect x="140.063" y="391.844" fill-rule="evenodd" clip-rule="evenodd" fill="#084C61" width="5.258" height="5.259"/>
<rect x="129.545" y="402.363" fill-rule="evenodd" clip-rule="evenodd" fill="#2D4D60" width="5.258" height="5.26"/>
<rect x="140.063" y="402.363" fill-rule="evenodd" clip-rule="evenodd" fill="#2D4D60" width="5.258" height="5.26"/>
</svg>
